<?xml version="1.0" standalone="no"?>
<!DOCTYPE svg PUBLIC "-//W3C//DTD SVG 1.1//EN" "http://www.w3.org/Graphics/SVG/1.1/DTD/svg11.dtd" >
<svg xmlns="http://www.w3.org/2000/svg">
<metadata></metadata>
<defs>
<font id="webfontregular" horiz-adv-x="2048" vert-adv-y="2048" >
<font-face units-per-em="2048" ascent="1599" descent="-449" />
<missing-glyph horiz-adv-x="1024" />
<glyph horiz-adv-x="0" vert-adv-y="0" />
<glyph horiz-adv-x="682" />
<glyph unicode=" " horiz-adv-x="1024" vert-adv-y="2457" />
<glyph unicode="!" horiz-adv-x="636" vert-adv-y="2457" d="M230 44q0 42 26 68q27 26 68 26q40 0 69 -28q28 -28 28 -67q0 -28 -19 -57q-27 -39 -77 -39q-38 0 -67 28q-28 28 -28 69zM244 1326q-5 84 73 84q73 0 73 -79v-6l-53 -899q-3 -48 -18 -48t-18 47z" />
<glyph unicode="&#x22;" horiz-adv-x="729" vert-adv-y="2457" d="M157 1511q-7 77 59 77q58 0 58 -61v-10l-41 -461q-3 -30 -19 -30q-15 0 -17 33zM479 1511v15q0 62 59 62q64 0 58 -71l-41 -461q-3 -30 -19 -30q-14 0 -17 33z" />
<glyph unicode="#" horiz-adv-x="1320" vert-adv-y="2457" d="M92 420q0 42 36 42h235l79 446h-232q-36 0 -36 40q0 42 36 42h247l70 394q9 50 19 62q10 13 27 13q43 0 43 -39q0 -7 -1 -15l-75 -415h335l68 378q9 51 18 63q10 13 27 13q43 0 43 -39q0 -10 -1 -16l-71 -399h210q40 0 40 -40q0 -42 -40 -42h-225l-80 -446h223 q40 0 40 -41t-40 -41h-237l-74 -414q-12 -67 -25 -74q-11 -6 -25 -6q-40 0 -40 36q0 9 2 22l78 436h-335l-71 -399q-12 -66 -25 -73q-10 -6 -24 -6q-40 0 -40 36q0 11 2 22l75 420h-220q-36 0 -36 40zM446 462h335l79 446h-334z" />
<glyph unicode="$" horiz-adv-x="1331" vert-adv-y="2457" d="M127 319q0 44 46 44q18 0 30 -14q10 -11 22 -62q40 -167 216 -242q69 -29 180 -39v657l-144 38q-311 81 -311 321q0 187 119 295q112 102 336 115v146q0 55 44 55q45 0 45 -55v-146q184 -11 296 -100q96 -76 133 -189q11 -33 11 -54q0 -46 -44 -46q-26 0 -37 19 q-2 5 -15 44q-21 69 -79 129q-90 93 -265 111v-620l168 -44q179 -48 262 -145q64 -74 64 -194q0 -212 -147 -322q-129 -97 -347 -101v-164q0 -54 -44 -54q-45 0 -45 54v166q-156 11 -266 68q-160 82 -208 232q-20 64 -20 97zM264 1037q0 -122 86 -183q71 -51 199 -85l72 -19 v598q-57 -2 -107 -14q-121 -27 -190 -113q-60 -76 -60 -184zM710 4q60 1 119 12q148 26 219 120q62 83 62 205q0 112 -76 173q-80 62 -244 105l-80 21v-636z" />
<glyph unicode="%" horiz-adv-x="1862" vert-adv-y="2457" d="M109 1062q0 135 94 228q97 94 227 94q134 0 229 -94q94 -95 94 -232q0 -130 -94 -224q-95 -95 -228 -95t-228 95q-94 94 -94 228zM196 1062q0 -97 69 -166q69 -68 166 -68t166 68q69 69 69 169q0 95 -69 162q-71 68 -166 68q-97 0 -166 -68q-69 -69 -69 -165zM435 -60 q0 16 9 32l781 1436q18 33 44 33q21 0 36 -17q8 -10 8 -25t-9 -32l-782 -1437q-18 -33 -44 -33q-17 0 -30 13q-13 12 -13 30zM998 281q0 136 94 228q97 94 227 94q134 0 229 -94q94 -94 94 -231q0 -130 -94 -224q-95 -95 -228 -95t-228 95q-94 94 -94 227zM1085 281 q0 -96 69 -165q69 -68 166 -68t166 68q69 69 69 168q0 95 -69 162q-71 68 -166 68q-97 0 -166 -68t-69 -165z" />
<glyph unicode="&#x26;" horiz-adv-x="1359" vert-adv-y="2457" d="M119 325q0 113 51 192q60 92 262 210q18 10 39 22l-19 25q-51 63 -83 109q-84 121 -84 213q0 119 92 202q90 81 221 81q130 0 213 -81q82 -78 82 -203q0 -165 -193 -286q-58 -37 -110 -64l339 -419q53 103 66 224q6 57 42 57q39 0 39 -43q0 -56 -25 -155 q-16 -66 -64 -159l151 -175q21 -25 21 -42q0 -16 -13 -31q-15 -17 -35 -17t-50 37l-124 147l-13 -12l-6 -6q-62 -57 -108 -93q-130 -103 -307 -103q-182 0 -291 112q-93 97 -93 258zM214 310q0 -108 51 -170q39 -47 112 -76q69 -26 142 -26q152 0 290 131q22 20 73 73 l-366 459l-31 -19q-104 -66 -157 -114q-114 -105 -114 -258zM377 1097q0 -75 43 -139q30 -46 127 -160q44 26 74 45q187 118 187 256q0 96 -69 159q-60 54 -147 54q-91 0 -150 -55q-65 -59 -65 -160z" />
<glyph unicode="'" horiz-adv-x="669" vert-adv-y="2457" d="M134 1121q0 5 10 23l226 394q26 44 52 44q33 0 59 -32q11 -14 11 -26q0 -21 -22 -48l-298 -355q-14 -16 -24 -16q-14 0 -14 16z" />
<glyph unicode="(" horiz-adv-x="729" vert-adv-y="2457" d="M251 667q0 311 125 610q84 203 173 324q11 15 23 14q19 -1 19 -21q0 -8 -14 -33q-226 -414 -226 -894q0 -337 119 -651q53 -138 105 -229q16 -28 16 -40q0 -22 -22 -22q-24 0 -92 123q-226 412 -226 819z" />
<glyph unicode=")" horiz-adv-x="729" vert-adv-y="2457" d="M145 -253q0 11 16 40q63 111 120 272q104 294 104 608q0 482 -226 895q-14 25 -14 33q0 20 20 20q34 0 131 -196q189 -385 189 -752q0 -435 -245 -852q-53 -91 -73 -91q-22 0 -22 23z" />
<glyph unicode="*" horiz-adv-x="1117" vert-adv-y="2457" d="M128 788q0 23 16 40q19 21 43 21q18 0 45 -12l286 -124l-21 313l-1 16q-2 29 16 47q18 19 43 19q59 0 59 -66q0 -7 -1 -16l-24 -310l304 125q24 10 40 10q21 0 37 -19q13 -16 13 -37q0 -48 -61 -62l-316 -77l209 -249q27 -32 27 -53q0 -26 -18 -44t-43 -18q-34 0 -59 44 l-166 287l-173 -291q-26 -43 -60 -43q-29 0 -47 23q-14 17 -14 41q0 22 27 54l209 246l-308 73q-62 14 -62 62z" />
<glyph unicode="+" horiz-adv-x="1282" vert-adv-y="2457" d="M81 667q0 42 51 42h466v462q0 54 44 54q45 0 45 -54v-462h468q50 0 50 -41t-50 -41h-468v-463q0 -55 -44 -55q-45 0 -45 55v463h-466q-51 0 -51 40z" />
<glyph unicode="," horiz-adv-x="492" vert-adv-y="2457" d="M160 151q0 36 22 60q27 30 68 30q62 0 89 -52q13 -25 13 -69q0 -99 -45 -189q-23 -47 -64 -100q-35 -45 -56 -45q-20 0 -17 17q1 8 11 20q93 107 93 176q0 35 -54 68q-60 36 -60 84z" />
<glyph unicode="-" horiz-adv-x="1282" vert-adv-y="2457" d="M92 667q0 42 50 42h1004q50 0 50 -41t-50 -41h-1004q-50 0 -50 40z" />
<glyph unicode="." horiz-adv-x="492" vert-adv-y="2457" d="M142 155q0 43 29 72q31 30 74 30t73 -30q31 -32 31 -74q0 -30 -20 -57q-34 -46 -84 -46q-41 0 -72 31q-31 30 -31 74z" />
<glyph unicode="/" horiz-adv-x="901" vert-adv-y="2457" d="M170 -67q0 11 4 23l461 1464q13 41 44 41q44 0 44 -43q0 -13 -3 -24l-461 -1464q-13 -41 -45 -41q-44 0 -44 44z" />
<glyph unicode="0" horiz-adv-x="1124" vert-adv-y="2457" d="M125 672q0 720 434 720q192 0 300 -138q74 -94 100 -218q36 -167 36 -368q0 -719 -437 -719q-193 0 -299 138q-134 175 -134 585zM211 673q0 -639 352 -639q115 0 199 82q147 143 147 569q0 623 -350 623q-348 0 -348 -635z" />
<glyph unicode="1" horiz-adv-x="928" vert-adv-y="2457" d="M140 1082q0 17 31 22q172 25 242 80q63 49 104 179q8 24 23 24q22 0 22 -30v-1350q0 -63 -45 -63q-44 0 -44 63v1052h-299q-34 0 -34 23z" />
<glyph unicode="2" horiz-adv-x="1124" vert-adv-y="2457" d="M126 47q0 82 60 195q48 88 135 159q63 51 176 117l189 111q140 82 193 153q63 85 63 194q0 154 -113 248q-104 87 -252 87q-211 0 -289 -158q-29 -58 -52 -177q-8 -39 -42 -39q-43 0 -43 52q0 100 74 229q44 79 142 124t215 45q189 0 314 -109q129 -113 129 -299 q0 -139 -79 -246q-70 -96 -227 -185l-204 -115q-281 -157 -294 -383h751q64 0 64 -41t-64 -41h-745q-101 0 -101 79z" />
<glyph unicode="3" horiz-adv-x="1124" vert-adv-y="2457" d="M119 330q0 42 40 42q20 0 35 -17q13 -14 26 -78q53 -253 345 -253q170 0 269 95q92 89 92 251q0 109 -32 160q-52 80 -188 118q-62 18 -164 20q-62 2 -62 43q0 25 15 35q8 5 114 18q273 33 273 278q0 116 -84 186q-86 73 -225 73q-185 0 -274 -109q-42 -51 -60 -158 q-11 -61 -44 -61q-45 0 -45 39q0 60 30 142q85 229 382 229q184 0 300 -95q109 -88 109 -247q0 -211 -172 -291q-28 -13 -116 -36q137 -21 224 -83q114 -80 114 -262q0 -197 -131 -312q-126 -110 -335 -110q-275 0 -374 192q-27 53 -47 122q-15 51 -15 69z" />
<glyph unicode="4" horiz-adv-x="1124" vert-adv-y="2457" d="M63 402q0 31 29 77q16 25 67 94l548 762q38 53 62 53q32 0 32 -40v-936h192q56 0 56 -41t-56 -41h-192v-325q0 -56 -41 -56t-41 56v325h-531q-125 0 -125 72zM164 430q0 -8 10 -13t81 -5h464v805l-507 -712q-48 -66 -48 -75z" />
<glyph unicode="5" horiz-adv-x="1124" vert-adv-y="2457" d="M113 264q0 38 43 38q21 0 32 -16q3 -4 29 -65q20 -48 71 -104q86 -96 262 -96q177 0 282 117q89 101 89 285q0 186 -90 279t-250 93q-89 0 -182 -36q-17 -7 -120 -76q-67 -45 -89 -45q-45 0 -45 58q0 10 1 20l81 600q8 62 76 62h584q60 0 60 -41t-60 -41h-495 q-56 0 -72 -13.5t-23 -68.5l-63 -474q37 26 55 39q127 95 273 95q163 0 269 -72q176 -120 176 -381q0 -206 -104 -330q-125 -147 -353 -147q-255 0 -374 177q-63 94 -63 143z" />
<glyph unicode="6" horiz-adv-x="1124" vert-adv-y="2457" d="M109 632q0 373 130 568q60 91 160 143q93 48 206 48q198 0 312 -143q63 -79 63 -130q0 -42 -43 -42q-30 0 -57 59q-83 178 -281 178q-188 0 -290 -152q-100 -149 -105 -401q0 -19 -1 -72v-102q57 123 127 173q110 79 272 79q173 0 287 -104q126 -116 126 -318 q0 -187 -111 -315q-124 -143 -335 -143q-460 0 -460 674zM214 405q0 -152 95 -254q105 -114 263 -114q172 0 275 125q80 97 80 260q0 133 -66 218q-92 118 -264 118q-140 0 -215 -53q-168 -118 -168 -300z" />
<glyph unicode="7" horiz-adv-x="1124" vert-adv-y="2457" d="M100 1328q0 41 60 41h798q61 0 61 -45q0 -15 -75 -136q-156 -243 -187.5 -294t-65.5 -118q-142 -283 -215 -527q-15 -51 -53 -238q-11 -51 -48 -51q-46 0 -46 38q0 44 40 200q113 443 529 1089h-738q-60 0 -60 41z" />
<glyph unicode="8" horiz-adv-x="1124" vert-adv-y="2457" d="M111 367q0 185 153 293q50 35 137 67q-92 39 -141 80q-100 84 -100 224q0 154 112 253q108 96 288 96q177 0 284 -95q109 -97 109 -251q0 -127 -87 -212q-51 -49 -147 -95q35 -15 52 -22q80 -32 133 -79q113 -102 113 -254q0 -171 -111 -285q-126 -129 -345 -129 q-217 0 -341 127q-109 111 -109 282zM206 364q0 -149 104 -241q98 -87 255 -87q148 0 246 87q104 92 104 241t-103 237q-100 85 -249 85q-152 0 -252 -85q-105 -90 -105 -237zM255 1032q0 -117 83 -188q82 -71 219 -71t220 71q85 71 85 193q0 118 -84 191q-84 74 -218 74 q-137 0 -220 -74q-85 -75 -85 -196z" />
<glyph unicode="9" horiz-adv-x="1124" vert-adv-y="2457" d="M106 926q0 186 112 316q122 141 335 141q233 0 342 -157q73 -106 94 -241q21 -136 21 -297q0 -255 -42 -394q-103 -343 -439 -343q-208 0 -321 144q-40 51 -61 109q-10 28 -10 42q0 16 13 29q12 13 29 13q15 0 27 -14q5 -6 32 -58q96 -186 293 -186q146 0 249 100 q148 145 148 499v23v36v56q-43 -86 -78 -120q-125 -123 -308 -123q-200 0 -310 105q-126 121 -126 320zM189 921q0 -134 65 -218q92 -119 280 -119q176 0 278 111q90 97 90 241q0 167 -90 263q-102 108 -263 108q-174 0 -279 -127q-81 -99 -81 -259z" />
<glyph unicode=":" horiz-adv-x="492" vert-adv-y="2457" d="M135 125q0 43 27 70q28 27 70 27t71 -29t29 -70q0 -30 -19 -57q-30 -41 -80 -41q-40 0 -69 29t-29 71zM138 946q0 43 27 70q28 27 70 27t71 -29t29 -69q0 -29 -19 -55q-34 -44 -81 -44q-39 0 -68 29t-29 71z" />
<glyph unicode=";" horiz-adv-x="492" vert-adv-y="2457" d="M133 101q0 36 22 60q27 30 68 30q62 0 89 -52q13 -25 13 -70q0 -99 -45 -189q-23 -47 -64 -100q-35 -45 -56 -45q-20 0 -17 17q1 8 11 20q93 107 93 177q0 34 -54 67q-60 37 -60 85zM139 950q0 42 26 68q27 26 68 26q40 0 69 -28q28 -29 28 -67q0 -28 -19 -57 q-27 -39 -77 -39q-39 0 -67 28t-28 69z" />
<glyph unicode="&#x3c;" horiz-adv-x="1556" vert-adv-y="2457" d="M150 667q0 20 17 37q13 13 85 42l1118 456q30 12 50 12q16 0 27 -16q10 -15 10 -30q0 -14 -14 -25q-14 -10 -1128 -461q-20 -9 -35 -14q16 -7 37 -16q1112 -450 1127 -462q14 -10 14 -25q0 -9 -6 -21q-12 -23 -34 -23q-17 0 -48 12l-1118 456q-75 31 -89 46 q-13 15 -13 32z" />
<glyph unicode="=" horiz-adv-x="1591" vert-adv-y="2457" d="M81 423q0 42 50 42h1330q50 0 50 -41t-50 -41h-1330q-50 0 -50 40zM81 912q0 42 50 42h1330q50 0 50 -41t-50 -41h-1330q-50 0 -50 40z" />
<glyph unicode="&#x3e;" horiz-adv-x="1556" vert-adv-y="2457" d="M149 165q0 16 23 31q9 6 1117 454q21 9 38 16q-15 6 -36 14q-1115 452 -1128 462q-14 11 -14 26q0 9 6 21q13 23 33 23q19 0 48 -12l1119 -456q76 -31 89 -46t13 -32q0 -20 -18 -37q-13 -12 -84 -41l-1119 -456q-31 -13 -50 -13q-16 0 -27 16q-10 15 -10 30z" />
<glyph unicode="?" horiz-adv-x="1046" vert-adv-y="2457" d="M131 1014q0 59 26 142q35 112 139 176q92 55 233 55q185 0 288 -101q97 -94 97 -244q0 -127 -81 -236q-45 -60 -173 -174q-108 -96 -108 -218v-109q0 -53 -45 -53q-44 0 -44 58v120q0 90 47 154q45 61 143 149q93 84 131 143q47 72 47 160q0 147 -97 218q-74 55 -198 55 q-201 0 -275 -136q-27 -49 -44 -166q-5 -41 -42 -41q-44 0 -44 48zM415 20q0 43 27 70q28 27 70 27t71 -29t29 -69q0 -29 -20 -55q-33 -44 -80 -44q-39 0 -68 29t-29 71z" />
<glyph unicode="@" horiz-adv-x="1947" vert-adv-y="2457" d="M101 610q0 268 162 508q144 213 389 323q193 86 389 86q229 0 430 -112q372 -207 372 -604q0 -271 -145 -439q-140 -161 -350 -161q-97 0 -148 42q-42 35 -49 127q-25 -26 -37 -39q-109 -120 -253 -120q-106 0 -181 54q-59 43 -93 116q-38 80 -38 166q0 157 87 304 q81 137 231 194q87 33 168 33q191 0 248 -229l37 133q19 65 58 65q43 0 43 -39q0 -18 -8 -45l-133 -453q-29 -96 -29 -138q0 -35 32 -61q31 -26 87 -26q130 0 238 118q138 151 138 387q0 275 -205 456q-208 183 -496 183q-231 0 -442 -123q-199 -115 -308 -317 q-98 -182 -98 -377q0 -297 210 -499q221 -213 589 -213q152 0 287 38q31 9 50 9q39 0 39 -43q0 -24 -24 -36q-21 -10 -90 -25q-134 -29 -271 -29q-408 0 -659 246q-227 223 -227 540zM640 568q0 -137 89 -213q72 -62 169 -62q134 0 232 141q108 155 108 341q0 120 -60 180 q-63 61 -156 61q-169 0 -264 -119q-50 -62 -83 -148q-35 -92 -35 -181z" />
<glyph unicode="A" horiz-adv-x="1406" vert-adv-y="2457" d="M105 -63q0 12 7 31l538 1396q20 52 30 62q14 12 30 12q22 0 34 -18q15 -23 28 -56l545 -1390q8 -21 8 -38q0 -18 -16 -34q-14 -13 -32 -13q-13 0 -27 9q-7 4 -21 42l-172 445h-695l-169 -445q-12 -32 -22 -37q-11 -7 -23 -7q-16 0 -28 11q-15 13 -15 30zM393 467h633 l-318 827z" />
<glyph unicode="B" horiz-adv-x="1365" vert-adv-y="2457" d="M200 42v1257q0 106 107 106h505q191 0 294 -92q104 -91 104 -261q0 -217 -136 -294q-56 -31 -133 -57q100 -25 162 -56q84 -44 121 -102q52 -81 52 -221q0 -173 -92 -274q-102 -112 -308 -112h-569q-107 0 -107 106zM289 112q0 -62 17 -78q18 -16 78 -16h492 q151 0 231 85t80 229q0 143 -80 226q-45 47 -95 63q-84 26 -217 26h-506v-535zM289 729h492q145 0 244 69q96 67 96 226q0 163 -99 238q-81 61 -241 61h-397q-67 0 -81 -16t-14 -78v-500z" />
<glyph unicode="C" horiz-adv-x="1450" vert-adv-y="2457" d="M130 662q0 377 196 590q158 171 439 171q223 0 350 -101q100 -80 153 -233q19 -55 19 -73q0 -19 -17 -32q-13 -10 -30 -10q-20 0 -31 13q-6 7 -37 96q-91 259 -427 259q-250 0 -382 -171q-143 -186 -143 -507q0 -308 139 -486q143 -183 400 -183q280 0 399 217 q40 72 66 194q10 51 46 51q45 0 45 -42q0 -55 -29 -140q-66 -192 -197 -278q-127 -83 -331 -83q-268 0 -425 162q-203 209 -203 586z" />
<glyph unicode="D" horiz-adv-x="1420" vert-adv-y="2457" d="M179 57v1226q0 116 122 116h439q248 0 395 -160q172 -188 172 -569t-172 -569q-147 -160 -395 -160h-439q-122 0 -122 116zM268 82q0 -38 15 -50q11 -9 44 -9h392q185 0 283 74q124 93 176 247q41 123 41 326q0 238 -57 366q-72 162 -197 231q-90 50 -246 50h-392 q-33 0 -44 -9q-15 -12 -15 -50v-1176z" />
<glyph unicode="E" horiz-adv-x="1305" vert-adv-y="2457" d="M196 78v1190q0 70 32 102t102 32h762q57 0 57 -41t-57 -41h-740q-67 0 -67 -67v-526h777q56 0 56 -41t-56 -41h-777v-552q0 -67 67 -67h783q57 0 57 -41t-57 -41h-805q-70 0 -102 32t-32 102z" />
<glyph unicode="F" horiz-adv-x="1256" vert-adv-y="2457" d="M202 -41v1312q0 70 32 102t102 32h801q60 0 60 -41t-60 -41h-779q-67 0 -67 -67v-529h753q56 0 56 -41t-56 -41h-753v-686q0 -58 -45 -58q-44 0 -44 58z" />
<glyph unicode="G" horiz-adv-x="1528" vert-adv-y="2457" d="M132 664q0 269 125 463q180 281 545 281q323 0 484 -211q35 -46 62 -107q24 -53 24 -75q0 -44 -45 -44q-28 0 -47 51q-110 307 -480 307q-247 0 -401 -159q-83 -85 -128 -207q-50 -139 -50 -291q0 -203 78 -372q76 -164 233 -235q123 -55 270 -55q233 0 374 146 q140 146 140 356v18q0 64 -66 64h-363q-48 0 -48 41t48 41h385q69 0 101 -32t32 -102v-568q0 -62 -45 -62t-45 62v254q-43 -75 -87 -126q-69 -81 -203 -138q-99 -42 -229 -42q-290 0 -460 176q-204 212 -204 566z" />
<glyph unicode="H" horiz-adv-x="1460" vert-adv-y="2457" d="M192 -46v1422q0 55 44 55q45 0 45 -55v-636h909v636q0 55 44 55q45 0 45 -55v-1422q0 -55 -44 -55q-45 0 -45 55v704h-909v-704q0 -55 -44 -55q-45 0 -45 55z" />
<glyph unicode="I" horiz-adv-x="509" vert-adv-y="2457" d="M205 -38v1414q0 55 44 55q45 0 45 -55v-1414q0 -55 -44 -55q-45 0 -45 55z" />
<glyph unicode="J" horiz-adv-x="1044" vert-adv-y="2457" d="M68 263v77q0 59 45 59q44 0 44 -48v-53q0 -139 54 -211q70 -95 247 -95q194 0 267 107q53 78 53 257v1015q0 60 44 60q45 0 45 -60v-1085q0 -176 -91 -275q-50 -55 -121 -79t-184 -24q-164 0 -242 41q-161 85 -161 314z" />
<glyph unicode="K" horiz-adv-x="1375" vert-adv-y="2457" d="M192 -42v1418q0 55 44 55q45 0 45 -55v-816q251 207 408 368q258 266 358 405l39 55q19 26 40 26q19 0 36 -15q13 -13 13 -30q0 -12 -16 -34l-44 -60q-126 -172 -440 -487l513 -722q25 -35 25 -52t-14 -32t-35 -15q-25 0 -48 35l-505 726q-76 -70 -330 -276v-494 q0 -55 -44 -55q-45 0 -45 55z" />
<glyph unicode="L" horiz-adv-x="1163" vert-adv-y="2457" d="M169 61v1312q0 58 45 58q44 0 44 -58v-1297q0 -67 67 -67h756q60 0 60 -41t-60 -41h-778q-70 0 -102 32t-32 102z" />
<glyph unicode="M" horiz-adv-x="1709" vert-adv-y="2457" d="M193 -12v1364q0 71 56 71q24 0 36 -12q15 -15 38 -70l537 -1265l530 1267q31 73 68 73q58 0 58 -62v-1366q0 -60 -45 -60q-44 0 -44 60v1253l-500 -1228q-23 -57 -65 -57q-43 0 -66 57l-514 1223v-1248q0 -60 -45 -60q-44 0 -44 60z" />
<glyph unicode="N" horiz-adv-x="1473" vert-adv-y="2457" d="M194 -5v1358q0 68 54 68q41 0 94 -80l848 -1277v1287q0 60 44 60q45 0 45 -60v-1356q0 -67 -58 -67q-42 0 -94 79l-844 1266v-1278q0 -61 -45 -61q-44 0 -44 61z" />
<glyph unicode="O" horiz-adv-x="1603" vert-adv-y="2457" d="M133 671q0 272 114 459q102 168 283 244q123 52 272 52q259 0 433 -149q241 -205 241 -620q0 -260 -115 -448q-103 -170 -284 -245q-124 -52 -274 -52q-258 0 -430 149q-240 208 -240 610zM220 670q0 -335 180 -517q159 -162 402 -162q245 0 403 162q177 182 177 527 q0 222 -88 385q-82 153 -240 227q-117 55 -251 55q-243 0 -403 -161q-180 -180 -180 -516z" />
<glyph unicode="P" horiz-adv-x="1365" vert-adv-y="2457" d="M183 -31v1323q0 106 120 106h559q419 0 419 -410q0 -224 -125 -326q-111 -91 -294 -91h-590v-602q0 -61 -45 -61q-44 0 -44 61zM272 653h583q174 0 261 83q80 78 80 246q0 176 -83 254q-85 80 -258 80h-485q-73 0 -85 -14q-13 -16 -13 -87v-562z" />
<glyph unicode="Q" horiz-adv-x="1603" vert-adv-y="2457" d="M129 666v3q0 398 241 604q173 149 432 149t432 -149q241 -207 241 -606v-1q0 -3 -1 -24q-13 -201 -52 -301q-44 -113 -165 -251l153 -124q26 -21 26 -37t-12 -30q-10 -13 -25 -13t-35 16l-165 136q-170 -123 -396 -123q-203 0 -358 94q-244 149 -295 452q-12 74 -20 192z M220 666q10 -124 24 -200q47 -247 225 -373q145 -102 332 -102q179 0 333 100l-249 206q-17 14 -17 33q0 37 35 37q15 0 29 -11l261 -214q21 21 41 43q68 76 109 238q19 74 42 243q-5 271 -116 438q-81 123 -216 186q-118 56 -253 56q-186 0 -331 -102q-244 -170 -249 -578z " />
<glyph unicode="R" horiz-adv-x="1431" vert-adv-y="2457" d="M182 -21v1318q0 106 106 106h562q195 0 301 -78q71 -52 97 -127q25 -74 25 -180q0 -157 -59 -230q-50 -61 -130 -95q-24 -10 -115 -36q92 -29 126 -46q78 -40 111 -107q21 -42 25 -98q6 -66 8 -170q4 -173 28 -233q18 -44 54 -79q-13 -1 -18 -1q-94 0 -125 51 q-29 46 -29 173l3 132q0 174 -67 249q-73 82 -259 82h-555v-631q0 -61 -45 -61q-44 0 -44 61zM271 692h557q345 0 345 315q0 169 -95 247q-82 67 -250 67h-456q-68 0 -81 -12q-20 -16 -20 -86v-531z" />
<glyph unicode="S" horiz-adv-x="1303" vert-adv-y="2457" d="M67 352q0 42 41 42q22 0 36 -21q5 -9 19 -70q30 -137 130 -212q123 -94 364 -94q213 0 319 74q129 90 129 267q0 119 -66 179q-60 55 -243 103l-378 99q-262 68 -262 307q0 174 122 285q71 63 157 85q103 27 231 27q201 0 316 -58q140 -71 195 -214q19 -50 19 -85 q0 -51 -50 -51q-29 0 -37 43q-21 111 -92 174q-124 108 -356 108q-190 0 -294 -77q-113 -83 -113 -237q0 -115 68 -170q53 -43 212 -85l379 -100q135 -35 207 -123q74 -90 74 -223q0 -147 -87 -253q-126 -155 -457 -155q-428 0 -545 273q-38 89 -38 162z" />
<glyph unicode="T" horiz-adv-x="1365" vert-adv-y="2457" d="M71 1358q0 42 50 42h1128q51 0 51 -41t-51 -41h-518v-1360q0 -55 -44 -55q-45 0 -45 55v1360h-521q-50 0 -50 40z" />
<glyph unicode="U" horiz-adv-x="1455" vert-adv-y="2457" d="M180 363v992q0 60 44 60q45 0 45 -60v-992q0 -372 456 -372q215 0 334 88q128 94 128 284v992q0 60 44 60q45 0 45 -60v-992q0 -451 -550 -451q-546 0 -546 451z" />
<glyph unicode="V" horiz-adv-x="1360" vert-adv-y="2457" d="M95 1382q0 16 14 27q15 12 33 12q29 0 49 -51l504 -1308l493 1309q17 46 47 46q18 0 31 -11q15 -14 15 -29q0 -14 -7 -34l-503 -1344q-16 -43 -32 -54q-19 -13 -40 -13t-41 13q-17 11 -33 54l-522 1349q-8 20 -8 34z" />
<glyph unicode="W" horiz-adv-x="1959" vert-adv-y="2457" d="M119 1351q0 25 24 37q11 6 24 6q36 0 50 -52l325 -1226l373 1211q14 45 26 55q14 13 36 13q42 0 62 -64l385 -1217l319 1228q13 52 50 52q16 0 29 -9q18 -14 18 -34q0 -12 -5 -32l-347 -1306q-12 -48 -22 -58q-14 -14 -33 -14q-20 0 -35 16q-8 8 -22 50l-397 1212 l-387 -1199q-15 -49 -27 -59q-15 -12 -33 -12q-40 0 -57 63l-351 1307q-5 18 -5 32z" />
<glyph unicode="X" horiz-adv-x="1386" vert-adv-y="2457" d="M126 5q0 22 16 39l110 119q210 226 418 487l-494 675q-16 21 -16 36q0 20 16 34q12 12 29 12q24 0 51 -37l473 -641q212 283 377 540l65 101q14 22 38 22q14 0 25 -9q19 -16 19 -40q0 -10 -5 -18l-55 -93q-144 -242 -406 -582l445 -604q21 -28 21 -48q0 -11 -8 -22 q-15 -22 -40 -22t-50 33l-428 586l-48 -58q-94 -115 -348 -404l-116 -132q-16 -19 -41 -19q-48 0 -48 45z" />
<glyph unicode="Y" horiz-adv-x="1409" vert-adv-y="2457" d="M130 1374q0 20 16 33q12 11 28 11q22 0 47 -36l495 -717l457 709q28 43 49 43t38 -15q14 -13 14 -28t-15 -38l-502 -749v-622q0 -60 -45 -60q-44 0 -44 60v622l-523 751q-15 22 -15 36z" />
<glyph unicode="Z" horiz-adv-x="1365" vert-adv-y="2457" d="M110 -16q0 30 73 120l985 1212h-972q-43 0 -43 41t43 41h1008q72 0 72 -55q0 -35 -78 -131l-969 -1194h1004q43 0 43 -41t-43 -41h-1058q-65 0 -65 48z" />
<glyph unicode="[" horiz-adv-x="707" vert-adv-y="2457" d="M172 -176v1688q0 106 118 106h184q50 0 50 -41t-50 -41h-119q-74 0 -86 -19q-8 -12 -8 -75v-1548q0 -65 10 -78q12 -16 84 -16h119q50 0 50 -40q0 -42 -50 -42h-184q-118 0 -118 106z" />
<glyph unicode="\" horiz-adv-x="901" vert-adv-y="2457" d="M171 1380q0 43 44 43q31 0 44 -40l452 -1415q4 -12 4 -25q0 -43 -44 -43q-31 0 -44 40l-452 1415q-4 12 -4 25z" />
<glyph unicode="]" horiz-adv-x="707" vert-adv-y="2457" d="M171 -241q0 41 50 41h119q74 0 86 19q8 12 8 75v1548q0 65 -10 78q-12 16 -84 16h-119q-50 0 -50 40q0 42 50 42h184q118 0 118 -106v-1688q0 -106 -118 -106h-184q-50 0 -50 41z" />
<glyph unicode="^" horiz-adv-x="837" vert-adv-y="2457" d="M73 1314q0 8 10 19q4 4 128 120q19 17 74 72q39 39 84 39h90q46 0 85 -39q53 -54 194 -184q18 -16 18 -27q0 -14 -16 -14q-14 0 -92 49q-174 108 -190 117q-23 13 -44 13q-20 0 -43 -13q-21 -12 -190 -117q-78 -49 -93 -49t-15 14z" />
<glyph unicode="_" horiz-adv-x="1027" vert-adv-y="2457" d="M-4 -315q0 42 50 42h934q50 0 50 -41t-50 -41h-934q-50 0 -50 40z" />
<glyph unicode="`" horiz-adv-x="669" vert-adv-y="2457" d="M134 1525q0 15 17 32q25 25 53 25q26 0 52 -44l226 -394q10 -17 10 -23q0 -15 -14 -15q-11 0 -24 15l-298 355q-22 27 -22 49z" />
<glyph unicode="a" horiz-adv-x="1114" vert-adv-y="2457" d="M122 183q0 199 179 272q70 29 344 64q103 13 145 46q42 32 42 97v72q0 117 -95 169q-68 37 -180 37q-277 0 -311 -195q-8 -44 -22 -52q-9 -5 -23 -5q-47 0 -47 45q0 93 71 174q104 118 324 118q166 0 261 -57q111 -68 111 -210v-676q0 -87 24 -104q21 -15 94 -15 q44 0 44 -37q0 -34 -33 -41q-18 -3 -62 -3q-80 0 -118 37q-39 39 -39 128q0 4 1 22q-157 -187 -386 -187q-153 0 -240 81q-84 78 -84 220zM208 182q0 -216 261 -216q175 0 288 110q75 72 75 163v254q-76 -31 -110 -38q-48 -11 -216 -33q-152 -20 -218 -66q-80 -56 -80 -174z " />
<glyph unicode="b" horiz-adv-x="1193" vert-adv-y="2457" d="M181 -41v1405q0 60 45 60q44 0 44 -60v-651q46 104 100 161q104 110 282 110q188 0 300 -121q128 -139 128 -405q0 -244 -117 -396q-112 -147 -318 -147q-162 0 -261 83q-52 44 -114 160v-199q0 -60 -44 -60q-45 0 -45 60zM270 450q0 -185 82 -312q93 -145 282 -145 t276 138q79 124 79 324q0 193 -78 311q-45 68 -123 105q-74 35 -159 35q-183 0 -277 -145q-82 -127 -82 -311z" />
<glyph unicode="c" horiz-adv-x="1072" vert-adv-y="2457" d="M106 442q0 261 129 416q118 142 321 142q251 0 358 -195q39 -72 39 -112q0 -43 -44 -43q-28 0 -47 56q-36 105 -96 151q-85 65 -213 65q-160 0 -254 -118q-105 -130 -105 -365q0 -215 99 -339q98 -123 264 -123q174 0 265 137q28 42 59 130q8 25 30 25q50 0 50 -43 q0 -33 -24 -89q-101 -238 -384 -238q-189 0 -302 119q-145 152 -145 424z" />
<glyph unicode="d" horiz-adv-x="1197" vert-adv-y="2457" d="M133 458q0 266 128 405q112 121 301 121q178 0 281 -110q54 -57 100 -161v651q0 60 45 60q44 0 44 -60v-1405q0 -60 -45 -60q-44 0 -44 60v199q-67 -125 -128 -171q-96 -72 -247 -72q-206 0 -318 147q-117 152 -117 396zM224 444q0 -189 79 -313q87 -138 276 -138 t282 145q82 127 82 312q0 187 -82 311q-96 145 -277 145q-123 0 -215 -69q-145 -110 -145 -393z" />
<glyph unicode="e" horiz-adv-x="1130" vert-adv-y="2457" d="M112 450q0 270 135 420q129 142 327 142q160 0 281 -99q157 -128 157 -348q0 -69 -15 -92q-24 -36 -91 -36h-700q3 -151 26 -217q44 -120 151 -187q88 -55 200 -55q151 0 249 80q73 59 102 136q17 48 39 48q16 0 34 -9q19 -10 19 -28q0 -22 -16 -63q-44 -109 -155 -178 q-99 -62 -256 -62q-241 0 -364 147t-123 401zM209 519h706v37v15q0 121 -68 219q-100 146 -276 146q-116 0 -208 -69q-94 -70 -133 -194q-17 -55 -21 -154z" />
<glyph unicode="f" horiz-adv-x="650" vert-adv-y="2457" d="M58 925q0 41 57 41h149v246q0 102 37 146q36 44 99 53q37 6 86 6q36 0 49 -6q20 -9 20 -39q0 -38 -45 -38q-93 -2 -124 -19q-33 -18 -33 -117v-232h176q56 0 56 -41t-56 -41h-176v-920q0 -61 -45 -61q-44 0 -44 61v920h-149q-57 0 -57 41z" />
<glyph unicode="g" horiz-adv-x="1174" vert-adv-y="2457" d="M111 443q0 269 140 418q115 123 290 123q105 0 194 -55q69 -42 106 -108q30 -53 54 -161v263q0 61 44 61q45 0 45 -61v-854q0 -232 -34 -339q-80 -255 -393 -255q-254 0 -370 144q-67 84 -67 142q0 37 38 37q13 0 22 -8q5 -4 52 -90q33 -60 124 -104q88 -43 206 -43 q184 0 264 114q69 100 69 317v214q-27 -90 -88 -165q-96 -119 -263 -119q-183 0 -303 133q-130 143 -130 396zM200 455q0 -196 82 -319q42 -63 114 -103q75 -42 161 -42q172 0 261 148q77 126 77 319q0 199 -92 326q-90 125 -244 125q-119 0 -214 -76q-145 -115 -145 -378z " />
<glyph unicode="h" horiz-adv-x="1161" vert-adv-y="2457" d="M169 -43v1411q0 60 44 60q45 0 45 -60v-595q70 108 150 156q103 64 265 64q138 0 225 -63q99 -71 99 -197v-776q0 -60 -45 -60q-44 0 -44 60v707q0 152 -84 205q-70 45 -192 45q-165 0 -267 -106q-107 -112 -107 -296v-555q0 -60 -45 -60q-44 0 -44 60z" />
<glyph unicode="i" horiz-adv-x="508" vert-adv-y="2457" d="M174 1318q0 35 23 57q23 23 56 23q35 0 57 -23q21 -22 21 -57q0 -25 -14 -45q-22 -32 -64 -32q-33 0 -56 23q-23 22 -23 54zM208 -38v972q0 55 44 55q45 0 45 -55v-972q0 -55 -44 -55q-45 0 -45 55z" />
<glyph unicode="j" horiz-adv-x="541" vert-adv-y="2457" d="M5 -448q0 38 44 38l73 -1q65 0 88 24q22 23 22 110v1208q0 60 44 60q45 0 45 -60v-1222q0 -151 -90 -187q-40 -16 -100 -16q-86 0 -100 4q-26 7 -26 42zM194 1322q0 33 23 56t54 23q30 0 55 -25t25 -55q0 -24 -16 -44q-26 -33 -63 -33q-32 0 -55 23t-23 55z" />
<glyph unicode="k" horiz-adv-x="1120" vert-adv-y="2457" d="M173 -42v1395q0 55 44 55q45 0 45 -55v-905q289 230 511 506l42 53q19 24 40 24q19 0 35 -17q12 -12 12 -29q0 -13 -17 -34l-47 -58q-95 -117 -215 -236l-33 -34l356 -572q23 -36 23 -51q0 -18 -16 -32q-14 -14 -33 -14q-27 0 -49 37l-345 571q-127 -116 -264 -219v-385 q0 -55 -44 -55q-45 0 -45 55z" />
<glyph unicode="l" horiz-adv-x="508" vert-adv-y="2457" d="M208 -38v1407q0 54 44 54q45 0 45 -54v-1407q0 -55 -44 -55q-45 0 -45 55z" />
<glyph unicode="m" horiz-adv-x="1722" vert-adv-y="2457" d="M193 -25v962q0 61 44 61q45 0 45 -61v-193q54 104 103 158q97 108 253 108q151 0 217 -99q24 -35 43 -102q46 64 72 91q105 106 260 106q129 0 203 -56q95 -72 95 -200v-775q0 -60 -45 -60q-44 0 -44 60v709q0 120 -15 156q-38 94 -195 94q-131 0 -207 -55 q-62 -46 -91 -105q-26 -55 -26 -154v-645q0 -60 -45 -60q-44 0 -44 60v709q0 117 -17 156q-39 93 -178 93q-110 0 -194 -69q-145 -119 -145 -244v-645q0 -60 -45 -60q-44 0 -44 60z" />
<glyph unicode="n" horiz-adv-x="1161" vert-adv-y="2457" d="M168 -26v959q0 60 44 60q45 0 45 -60v-200q72 139 160 202q51 36 94 52q55 21 162 21q140 0 219 -59q95 -72 95 -193v-782q0 -60 -45 -60q-44 0 -44 60v713q0 148 -77 205q-67 50 -201 50q-119 0 -189 -60q-89 -77 -128 -153q-46 -88 -46 -217v-538q0 -60 -45 -60 q-44 0 -44 60z" />
<glyph unicode="o" horiz-adv-x="1130" vert-adv-y="2457" d="M122 453q0 269 113 408q118 146 330 146q215 0 333 -146q70 -87 93 -196q20 -99 20 -221q0 -259 -113 -400q-116 -146 -332 -146q-215 0 -331 146q-113 141 -113 409zM210 453q0 -202 71 -318q43 -70 115 -112q77 -45 169 -45q189 0 284 157q70 116 70 323q0 196 -71 310 q-96 156 -283 156t-284 -156q-71 -113 -71 -315z" />
<glyph unicode="p" horiz-adv-x="1193" vert-adv-y="2457" d="M181 -457v1401q0 61 45 61q44 0 44 -61v-199q67 126 128 172q96 72 247 72q206 0 318 -147q117 -152 117 -396q0 -267 -128 -406q-112 -121 -301 -121q-177 0 -281 110q-54 58 -100 162v-648q0 -60 -44 -60q-45 0 -45 60zM270 454q0 -185 82 -312q94 -145 277 -145 q123 0 215 69q145 109 145 393q0 191 -79 314q-88 138 -276 138t-282 -145q-82 -127 -82 -312z" />
<glyph unicode="q" horiz-adv-x="1197" vert-adv-y="2457" d="M110 446q0 244 117 396q112 147 318 147q162 0 261 -83q51 -44 114 -161v199q0 60 45 60q44 0 44 -60v-1401q0 -60 -45 -60q-44 0 -44 60v648q-46 -105 -100 -162q-104 -110 -282 -110q-188 0 -300 121q-128 139 -128 406zM201 449q0 -193 78 -312q44 -67 123 -105 q73 -35 159 -35q183 0 277 145q82 128 82 312q0 187 -82 312q-95 145 -282 145q-188 0 -276 -138q-79 -123 -79 -324z" />
<glyph unicode="r" horiz-adv-x="751" vert-adv-y="2457" d="M169 -33v984q0 60 44 60q45 0 45 -60v-205q153 234 348 234q67 0 67 -48q0 -22 -13 -29q-12 -6 -54 -9q-105 -7 -182 -62q-166 -119 -166 -353v-512q0 -60 -45 -60q-44 0 -44 60z" />
<glyph unicode="s" horiz-adv-x="1031" vert-adv-y="2457" d="M88 185q0 43 47 43q35 0 50 -51q57 -192 314 -192q316 0 316 231q0 76 -44 115q-38 34 -163 64l-169 40q-167 40 -251 109q-76 63 -76 171q0 139 107 216q110 80 284 80q211 0 309 -115q60 -71 60 -125q0 -47 -44 -47q-26 0 -39 19q-5 8 -18 40q-29 71 -101 109 q-76 40 -171 40q-115 0 -196 -43q-97 -52 -97 -171q0 -83 71 -130q56 -38 180 -69l161 -40q125 -31 161 -49q132 -69 132 -222q0 -152 -114 -234q-101 -74 -286 -74q-301 0 -393 187q-30 61 -30 98z" />
<glyph unicode="t" horiz-adv-x="655" vert-adv-y="2457" d="M58 925q0 41 56 41h142v262q0 60 44 60q45 0 45 -60v-262h184q56 0 56 -41t-56 -41h-184v-793q0 -99 33 -117q23 -12 49 -15t137 -4q45 0 45 -38q0 -30 -20 -39q-13 -6 -65 -6q-145 0 -188 23q-42 24 -61 63q-19 40 -19 119v807h-142q-56 0 -56 41z" />
<glyph unicode="u" horiz-adv-x="1161" vert-adv-y="2457" d="M168 165v782q0 60 44 60q45 0 45 -60v-713q0 -148 77 -204q68 -50 201 -50q118 0 189 60q89 77 128 152q46 88 46 217v538q0 60 44 60q45 0 45 -60v-978q0 -61 -45 -61q-44 0 -44 61v219q-72 -138 -160 -201q-59 -43 -112.5 -58t-143.5 -15q-140 0 -219 59 q-95 72 -95 192z" />
<glyph unicode="v" horiz-adv-x="1079" vert-adv-y="2457" d="M107 935q0 18 14 30t31 12q28 0 46 -46l330 -858l344 845q22 56 49 56q13 0 27 -9q18 -13 18 -32q0 -13 -9 -35l-373 -905q-24 -58 -36 -70q-15 -14 -33 -14t-28 11q-13 13 -39 81l-334 899q-7 18 -7 35z" />
<glyph unicode="w" horiz-adv-x="1543" vert-adv-y="2457" d="M110 944q0 17 16 30q12 11 28 11q32 0 46 -46l255 -858l240 835q19 65 66 65q48 0 68 -66l249 -833l249 849q14 48 49 48q15 0 26 -9q16 -12 16 -28q0 -11 -6 -31l-278 -914q-17 -56 -62 -56q-40 0 -56 54l-256 875l-243 -875q-15 -54 -62 -54q-40 0 -57 54l-281 916 q-7 22 -7 33z" />
<glyph unicode="x" horiz-adv-x="1038" vert-adv-y="2457" d="M138 -23q0 11 16 33l324 453l-301 452q-14 21 -14 32q0 38 41 38q24 0 47 -34l273 -420l273 432q20 33 45 33q41 0 41 -42q0 -8 -16 -33l-294 -462l297 -440q16 -24 16 -36q0 -19 -14 -32q-12 -11 -28 -11q-21 0 -42 31l-278 416l-300 -418q-23 -33 -44 -33q-42 0 -42 41 z" />
<glyph unicode="y" horiz-adv-x="1038" vert-adv-y="2457" d="M100 -449q0 40 37 39h16h36q89 0 115 8q41 12 80 118l73 201l-329 1007q-6 20 -6 31q0 15 14 28q12 9 27 9q30 0 44 -44l299 -916l324 907q18 48 46 48q44 0 44 -35q0 -14 -7 -33l-450 -1223q-47 -129 -90 -160q-44 -31 -149 -31q-93 0 -109 12q-15 12 -15 34z" />
<glyph unicode="z" horiz-adv-x="1035" vert-adv-y="2457" d="M74 -22q0 20 15 39q4 6 73 90l646 790h-627q-56 0 -56 41t56 41h663q67 0 67 -49q0 -41 -66 -122l-655 -802h702q56 0 56 -41t-56 -41h-741q-77 0 -77 54z" />
<glyph unicode="{" horiz-adv-x="711" vert-adv-y="2457" d="M79 672q0 25 17 40q9 8 48 13q71 9 122 71q45 55 45 227v369q0 108 41 168q50 73 143 73h93q55 0 55 -39q0 -40 -51 -40h-56q-68 0 -96 -27q-40 -39 -40 -137v-397q0 -177 -60 -240q-40 -42 -132 -80q102 -40 140 -93q52 -74 52 -230v-398q0 -98 30 -129q32 -35 120 -35 h42q47 0 47 -41t-57 -41h-87q-106 0 -152 77q-32 51 -32 168v368q0 127 -25 186q-38 93 -156 116q-51 11 -51 51z" />
<glyph unicode="|" horiz-adv-x="751" vert-adv-y="2457" d="M328 -236v1814q0 55 44 55q45 0 45 -55v-1814q0 -55 -44 -55q-45 0 -45 55z" />
<glyph unicode="}" horiz-adv-x="711" vert-adv-y="2457" d="M79 1594q0 39 55 39h93q93 0 143 -73q41 -61 41 -168v-369q0 -135 25 -195q10 -24 37 -50q45 -45 105 -53q40 -5 48 -13q17 -16 17 -40q0 -40 -51 -51q-118 -23 -156 -116q-25 -59 -25 -186v-368q0 -116 -31 -168q-47 -77 -153 -77h-87q-57 0 -57 41t47 41h42 q88 0 120 35q30 31 30 129v398q0 167 60 241q37 45 132 82q-100 42 -140 89q-52 61 -52 231v397q0 98 -40 137q-28 27 -96 27h-56q-51 0 -51 40z" />
<glyph unicode="~" horiz-adv-x="1102" vert-adv-y="2457" d="M115 1428q0 18 38 61q72 84 172 84q75 0 165 -40q18 -8 124 -64q77 -41 141 -41q72 0 135 73q30 35 50 35q36 0 36 -39q0 -18 -25 -46q-87 -96 -198 -96q-88 0 -196 58q-120 64 -152.5 76.5t-76.5 9.5q-68 -4 -131 -79q-28 -33 -48 -32q-34 2 -34 40z" />
<glyph unicode="&#xa0;" horiz-adv-x="1024" vert-adv-y="2457" />
<glyph unicode="&#xa4;" vert-adv-y="2457" d="M458 133q0 16 23 40l156 163q-10 14 -23 31q-100 135 -100 304q0 159 93 293q3 5 12 17q7 9 16 22l-154 161q-23 24 -23 40q0 43 44 43q19 0 43 -25l152 -158q17 13 34 24q131 94 293 94q178 0 308 -101q2 -2 11 -9q6 -4 19 -14l155 161q23 24 43 24q44 0 44 -43 q0 -15 -23 -40l-158 -165q9 -12 13 -18q7 -10 11 -16q91 -123 91 -291q0 -167 -95 -295q-2 -3 -9 -13q-4 -6 -13 -19l167 -174q23 -24 23 -40q0 -43 -44 -43q-19 0 -42 24l-165 171q-12 -9 -18 -14q-151 -108 -320 -108q-142 0 -265 77q-33 21 -58 39l-154 -161 q-24 -24 -43 -24q-44 0 -44 43zM587 670q0 -194 145 -325q125 -112 293 -112q194 0 325 145q112 124 112 296q0 188 -145 320q-123 113 -299 113q-187 0 -318 -145q-113 -124 -113 -292z" />
<glyph unicode="&#xa7;" vert-adv-y="2457" d="M607 779q0 152 130 245q20 15 96 59q-17 19 -33 35q-72 78 -72 160q0 123 101 208q92 78 225 78q178 0 263 -138q40 -64 40 -139q0 -48 -39 -48q-37 0 -46 58q-11 77 -60 128q-64 68 -169 68q-93 0 -153 -57q-65 -62 -65 -151q0 -69 49 -122q26 -29 83 -66l290 -187 q103 -67 147 -127q49 -69 49 -174q0 -175 -129 -257q-18 -11 -107 -48l27 -27q98 -94 98 -209q0 -126 -93 -210q-92 -83 -237 -83q-201 0 -287 152q-36 64 -36 120q0 42 40 42q41 0 49 -48q11 -69 61 -122q68 -73 176 -73q98 0 160 55q70 60 70 157q0 120 -126 208l-337 233 q-91 63 -127 127q-38 65 -38 153zM682 807q0 -141 130 -232l368 -255q42 22 52 28q60 37 99 100q37 59 37 124q0 144 -162 254l-342 233q-19 -13 -29 -19q-153 -99 -153 -233z" />
<glyph unicode="&#xa8;" vert-adv-y="2457" d="M707 1486q0 42 26 68q27 26 68 26q40 0 69 -28q28 -29 28 -67q0 -28 -19 -57q-27 -39 -77 -39q-38 0 -67 28q-28 28 -28 69zM1145 1486q0 42 26 68q27 26 68 26q40 0 69 -28q28 -29 28 -67q0 -28 -19 -57q-27 -39 -77 -39q-38 0 -67 28q-28 28 -28 69z" />
<glyph unicode="&#xad;" horiz-adv-x="1282" vert-adv-y="2457" d="M92 667q0 42 50 42h1004q50 0 50 -41t-50 -41h-1004q-50 0 -50 40z" />
<glyph unicode="&#xb0;" vert-adv-y="2457" d="M220 1271q0 121 102 184q53 32 117 32q87 0 151 -63q63 -63 63 -154q0 -90 -63 -153q-64 -63 -153 -63q-91 0 -154 63t-63 154zM285 1270q0 -62 44 -107q45 -44 108 -44q62 0 107 44q44 45 44 108q0 85 -72 128q-37 23 -81 23q-61 0 -106 -44q-44 -44 -44 -108z" />
<glyph unicode="&#xb1;" vert-adv-y="2457" d="M456 51q0 45 60 45h1011q60 0 60 -45q0 -44 -60 -44h-1011q-60 0 -60 44zM456 857q0 45 60 45h465v460q0 61 44 61q45 0 45 -61v-460h457q60 0 60 -45q0 -44 -60 -44h-457v-457q0 -60 -45 -60q-44 0 -44 60v457h-465q-60 0 -60 44z" />
<glyph unicode="&#xb7;" vert-adv-y="2457" d="M884 670q0 79 68 119q34 21 74 21q56 0 97 -41q42 -42 42 -100q0 -57 -42 -99q-41 -41 -98 -41q-58 0 -100 41q-41 42 -41 100z" />
<glyph unicode="&#xd7;" vert-adv-y="2457" d="M557 247q0 17 24 41l381 381l-381 382q-24 24 -24 41q0 44 44 44q17 0 41 -24l382 -382l377 378q24 24 41 24q44 0 44 -44q0 -18 -24 -41l-377 -378l366 -370q24 -24 24 -41q0 -18 -13 -31t-31 -13t-41 24l-366 370l-382 -381q-23 -24 -41 -24q-44 0 -44 44z" />
<glyph unicode="&#xe0;" horiz-adv-x="1133" vert-adv-y="2457" d="M94 432q0 219 58 337q65 134 178 198q82 46 181 46q186 0 292 -133q2 -3 99 -135v191q0 56 41 56t41 -56v-710q0 -113 15 -161q12 -37 35 -67q18 -24 18 -39q0 -23 -18 -37q-12 -9 -27 -9q-35 0 -68 69q-11 22 -39 179l-46 -71q-128 -199 -343 -199q-183 0 -296 133 q-75 87 -98 185q-23 99 -23 223zM178 443q0 -251 107 -374q89 -102 234 -102q161 0 266 118q110 125 110 370q0 233 -101 354q-105 127 -269 127q-187 0 -277 -157q-70 -120 -70 -336zM354 1395q0 21 14 39q13 17 36 17q26 0 51 -33l197 -256q14 -18 14 -28q0 -18 -17 -18 q-11 0 -32 19l-232 209q-31 29 -31 51z" />
<glyph unicode="&#xe1;" horiz-adv-x="1133" vert-adv-y="2457" d="M94 432q0 219 58 337q65 134 178 198q82 46 181 46q186 0 292 -133q2 -3 99 -135v191q0 56 41 56t41 -56v-710q0 -113 15 -161q12 -37 35 -67q18 -24 18 -39q0 -23 -18 -37q-12 -9 -27 -9q-35 0 -68 69q-11 22 -39 179l-46 -71q-128 -199 -343 -199q-183 0 -296 133 q-75 87 -98 185q-23 99 -23 223zM178 443q0 -251 107 -374q89 -102 234 -102q161 0 266 118q110 125 110 370q0 233 -101 354q-105 127 -269 127q-187 0 -277 -157q-70 -120 -70 -336zM451 1134q0 10 14 28l197 256q25 33 51 33q23 0 36 -17q14 -17 14 -39t-31 -51 l-232 -209q-21 -19 -32 -19q-17 0 -17 18z" />
<glyph unicode="&#xe8;" horiz-adv-x="1133" vert-adv-y="2457" d="M113 450q0 270 135 420q129 142 327 142q160 0 281 -99q157 -128 157 -348q0 -69 -15 -92q-24 -36 -91 -36h-700q3 -151 26 -217q44 -120 151 -187q88 -55 200 -55q151 0 249 80q73 59 102 136q17 48 39 48q16 0 34 -9q19 -10 19 -28q0 -22 -16 -63q-44 -109 -155 -178 q-99 -62 -256 -62q-241 0 -364 147t-123 401zM210 519h706v37v15q0 121 -68 219q-100 146 -276 146q-116 0 -208 -69q-94 -70 -133 -194q-17 -55 -21 -154zM382 1388q0 21 14 39q13 17 36 17q26 0 51 -33l196 -256q15 -18 15 -28q0 -18 -17 -18q-11 0 -32 19l-232 210 q-31 28 -31 50z" />
<glyph unicode="&#xe9;" horiz-adv-x="1133" vert-adv-y="2457" d="M106 446q0 270 135 420q129 142 327 142q160 0 281 -99q157 -128 157 -348q0 -69 -15 -91q-24 -37 -91 -37h-700q3 -151 26 -217q44 -120 151 -187q88 -55 200 -55q151 0 249 80q73 59 102 136q17 48 39 48q16 0 34 -9q19 -10 19 -28q0 -22 -16 -63q-44 -109 -155 -178 q-99 -62 -256 -62q-241 0 -364 147t-123 401zM203 515h706v37v15q0 121 -68 219q-100 146 -276 146q-116 0 -208 -69q-94 -70 -133 -194q-17 -55 -21 -154zM458 1131q0 10 14 28l197 256q25 33 51 33q22 0 36 -17t14 -39t-31 -51l-232 -209q-21 -19 -32 -19q-17 0 -17 18z " />
<glyph unicode="&#xea;" horiz-adv-x="1133" vert-adv-y="2457" d="M113 450q0 270 135 420q129 142 327 142q160 0 281 -99q157 -128 157 -348q0 -69 -15 -92q-24 -36 -91 -36h-700q3 -151 26 -217q44 -120 151 -187q88 -55 200 -55q151 0 249 80q73 59 102 136q17 48 39 48q16 0 34 -9q19 -10 19 -28q0 -22 -16 -63q-44 -109 -155 -178 q-99 -62 -256 -62q-241 0 -364 147t-123 401zM210 519h706v37v15q0 121 -68 219q-100 146 -276 146q-116 0 -208 -69q-94 -70 -133 -194q-17 -55 -21 -154zM233 1181q0 8 10 19q4 4 128 120q17 15 74 72q39 39 85 39h89q46 0 85 -39q58 -58 194 -184q18 -16 18 -27 q0 -14 -16 -14q-14 0 -185 106q-99 62 -114 67q-15 6 -27 6q-20 0 -43 -13q-20 -11 -190 -117q-78 -49 -93 -49t-15 14z" />
<glyph unicode="&#xec;" horiz-adv-x="737" vert-adv-y="2457" d="M163 1396q0 21 14 38q13 17 36 17q26 0 51 -32l196 -256q15 -19 15 -29q0 -18 -17 -18q-10 0 -32 20l-232 209q-31 28 -31 51zM331 -26v972q0 54 44 54q45 0 45 -54v-972q0 -55 -44 -55q-45 0 -45 55z" />
<glyph unicode="&#xed;" horiz-adv-x="737" vert-adv-y="2457" d="M250 1123q0 9 15 29l196 255q26 33 52 33q23 0 36 -17q14 -17 14 -39t-32 -50l-232 -210q-21 -19 -32 -19q-17 0 -17 18zM332 -22v972q0 54 44 54q45 0 45 -54v-972q0 -55 -44 -55q-45 0 -45 55z" />
<glyph unicode="&#xf2;" horiz-adv-x="1120" vert-adv-y="2457" d="M119 468q0 269 113 408q118 146 330 146q216 0 333 -146q70 -87 93 -196q20 -98 20 -221q0 -258 -113 -399q-116 -146 -332 -146q-215 0 -331 146q-113 141 -113 408zM215 468q0 -203 69 -320q94 -158 279 -158q186 0 280 158q69 117 69 326q0 198 -69 314 q-95 158 -280 158q-184 0 -279 -158q-69 -116 -69 -320zM356 1392q0 21 14 39q13 17 36 17q26 0 51 -33l197 -256q14 -18 14 -28q0 -18 -17 -18q-10 0 -31 19l-233 209q-31 29 -31 51z" />
<glyph unicode="&#xf3;" horiz-adv-x="1120" vert-adv-y="2457" d="M119 456q0 269 113 408q118 146 330 146q216 0 333 -146q70 -88 93 -196q20 -98 20 -221q0 -258 -113 -399q-116 -146 -332 -146q-215 0 -331 146q-113 141 -113 408zM215 456q0 -203 69 -320q94 -158 279 -158q186 0 280 158q69 117 69 326q0 198 -69 314 q-95 158 -280 158q-184 0 -279 -158q-69 -116 -69 -320zM435 1119q0 10 14 29l197 255q25 33 51 33q23 0 37 -17q13 -17 13 -39t-31 -50l-232 -210q-22 -19 -32 -19q-17 0 -17 18z" />
<glyph unicode="&#xf7;" vert-adv-y="2457" d="M463 669q0 41 54 41h1019q55 0 55 -41t-55 -41h-1019q-54 0 -54 41zM925 233q0 42 26 68q27 26 68 26q40 0 69 -28q28 -28 28 -67q0 -28 -19 -57q-27 -39 -77 -39q-39 0 -67 28t-28 69zM932 1096q0 42 26 68q27 26 68 26q40 0 69 -28q28 -29 28 -67q0 -28 -19 -57 q-27 -39 -77 -39q-38 0 -67 28q-28 28 -28 69z" />
<glyph unicode="&#xf9;" horiz-adv-x="1120" vert-adv-y="2457" d="M148 170v781q0 60 44 60q45 0 45 -60v-713q0 -147 77 -204q68 -50 201 -50q119 0 189 60q89 77 128 152q46 88 46 218v537q0 60 44 60q45 0 45 -60v-978q0 -60 -45 -60q-44 0 -44 60v219q-72 -138 -160 -201q-59 -43 -112.5 -58t-143.5 -15q-140 0 -219 59 q-95 72 -95 193zM366 1384q0 21 14 39q13 17 36 17q26 0 51 -33l197 -255q14 -19 14 -29q0 -18 -17 -18q-10 0 -32 19l-232 210q-31 28 -31 50z" />
<glyph unicode="&#xfa;" horiz-adv-x="1120" vert-adv-y="2457" d="M152 166v781q0 61 44 61q45 0 45 -61v-713q0 -148 77 -204q67 -50 201 -50q119 0 189 60q89 77 128 152q46 88 46 218v537q0 61 44 61q45 0 45 -61v-978q0 -60 -45 -60q-44 0 -44 60v219q-72 -138 -160 -201q-59 -43 -112.5 -58t-143.5 -15q-140 0 -219 59 q-95 72 -95 193zM425 1123q0 9 15 29l196 255q26 33 52 33q22 0 36 -17t14 -39t-32 -50l-232 -210q-21 -19 -32 -19q-17 0 -17 18z" />
<glyph unicode="&#xfc;" horiz-adv-x="1120" vert-adv-y="2457" d="M155 166v781q0 61 44 61q45 0 45 -61v-713q0 -148 77 -204q67 -50 201 -50q119 0 189 60q89 77 128 152q46 88 46 218v537q0 61 44 61q45 0 45 -61v-978q0 -60 -45 -60q-44 0 -44 60v219q-72 -138 -160 -201q-59 -43 -112.5 -58t-143.5 -15q-140 0 -219 59 q-95 72 -95 193zM283 1265q0 42 26 68q27 26 68 26q40 0 69 -28q28 -28 28 -67q0 -29 -19 -57q-27 -39 -77 -39q-38 0 -67 28q-28 28 -28 69zM643 1262q0 42 26 68q27 26 68 26q40 0 69 -28q28 -28 28 -67q0 -28 -19 -57q-27 -39 -77 -39q-38 0 -67 28q-28 28 -28 69z" />
<glyph unicode="&#x2000;" horiz-adv-x="816" vert-adv-y="0" />
<glyph unicode="&#x2001;" horiz-adv-x="1633" vert-adv-y="0" />
<glyph unicode="&#x2002;" horiz-adv-x="816" vert-adv-y="0" />
<glyph unicode="&#x2003;" horiz-adv-x="1633" vert-adv-y="0" />
<glyph unicode="&#x2004;" horiz-adv-x="544" vert-adv-y="0" />
<glyph unicode="&#x2005;" horiz-adv-x="408" vert-adv-y="0" />
<glyph unicode="&#x2006;" horiz-adv-x="272" vert-adv-y="0" />
<glyph unicode="&#x2007;" horiz-adv-x="272" vert-adv-y="0" />
<glyph unicode="&#x2008;" horiz-adv-x="204" vert-adv-y="0" />
<glyph unicode="&#x2009;" horiz-adv-x="326" vert-adv-y="0" />
<glyph unicode="&#x200a;" horiz-adv-x="90" vert-adv-y="0" />
<glyph unicode="&#x2010;" horiz-adv-x="1282" vert-adv-y="2457" d="M92 667q0 42 50 42h1004q50 0 50 -41t-50 -41h-1004q-50 0 -50 40z" />
<glyph unicode="&#x2011;" horiz-adv-x="1282" vert-adv-y="2457" d="M92 667q0 42 50 42h1004q50 0 50 -41t-50 -41h-1004q-50 0 -50 40z" />
<glyph unicode="&#x2012;" horiz-adv-x="1282" vert-adv-y="2457" d="M92 667q0 42 50 42h1004q50 0 50 -41t-50 -41h-1004q-50 0 -50 40z" />
<glyph unicode="&#x2013;" horiz-adv-x="1202" vert-adv-y="2457" d="M92 667q0 42 46 42h932q46 0 46 -41t-46 -41h-932q-46 0 -46 40z" />
<glyph unicode="&#x2014;" vert-adv-y="2457" d="M102 668q0 41 54 41h1737q55 0 55 -41t-55 -41h-1737q-54 0 -54 41z" />
<glyph unicode="&#x2018;" vert-adv-y="2457" d="M1427 1241q0 100 45 189q25 49 64 100q35 45 56 45q20 0 17 -17q-1 -8 -11 -20q-92 -107 -92 -177q0 -35 53 -67q61 -37 61 -85q0 -35 -22 -60q-27 -30 -68 -30q-63 0 -90 52q-13 25 -13 70z" />
<glyph unicode="&#x2019;" vert-adv-y="2457" d="M432 1506q0 36 22 60q27 30 68 30q62 0 89 -52q13 -25 13 -70q0 -98 -45 -189q-23 -47 -64 -100q-35 -45 -56 -45q-20 0 -17 17q1 8 11 20q93 107 93 177q0 34 -54 67q-60 37 -60 85z" />
<glyph unicode="&#x201c;" vert-adv-y="2457" d="M1089 1245q0 100 45 189q24 49 64 100q35 45 56 45q20 0 17 -17q-1 -8 -11 -20q-92 -107 -92 -177q0 -35 53 -67q61 -37 61 -85q0 -35 -22 -60q-27 -30 -68 -30q-63 0 -90 52q-13 25 -13 70zM1419 1241q0 100 45 189q25 49 64 100q35 45 56 45q20 0 17 -17q-1 -8 -11 -20 q-92 -107 -92 -177q0 -35 53 -67q61 -37 61 -85q0 -35 -22 -60q-27 -30 -68 -30q-63 0 -90 52q-13 25 -13 70z" />
<glyph unicode="&#x201d;" vert-adv-y="2457" d="M430 1487q0 36 22 60q27 30 68 30q62 0 89 -52q13 -25 13 -70q0 -99 -45 -189q-23 -47 -64 -100q-35 -45 -56 -45q-20 0 -17 17q1 8 11 20q93 108 93 177q0 34 -54 67q-60 37 -60 85zM760 1483q0 36 22 60q27 30 68 30q62 0 89 -52q13 -25 13 -70q0 -99 -45 -189 q-23 -47 -64 -100q-35 -45 -56 -45q-20 0 -17 17q1 8 11 20q93 107 93 177q0 34 -54 67q-60 37 -60 85z" />
<glyph unicode="&#x2026;" vert-adv-y="2457" d="M197 669q0 65 54 97q28 17 61 17q45 0 79 -33q33 -34 33 -81t-33 -80t-81 -33q-47 0 -80 33t-33 80zM911 669q0 65 54 97q28 17 60 17q46 0 80 -33q33 -34 33 -81t-33 -80t-81 -33q-47 0 -80 33t-33 80zM1620 669q0 65 54 97q28 17 61 17q45 0 79 -33q33 -33 33 -81 q0 -47 -33 -80t-81 -33q-47 0 -80 33t-33 80z" />
<glyph unicode="&#x202f;" horiz-adv-x="326" vert-adv-y="0" />
<glyph unicode="&#x205f;" horiz-adv-x="408" vert-adv-y="0" />
<glyph unicode="&#x20ac;" vert-adv-y="2457" d="M327 563q0 41 54 41h124q-2 28 -2 64q0 66 8 130h-126q-54 0 -54 41t54 41h138q30 162 102 280q83 135 219 206q123 63 256 63t255 -59q143 -69 215 -259q22 -59 22 -87q0 -44 -44 -44q-20 0 -32 13q-6 7 -37 95q-42 120 -140 186q-111 74 -255 74q-160 0 -289 -111 q-132 -114 -183 -357h625q54 0 54 -41t-54 -41h-636q-8 -73 -8 -125q0 -22 2 -69h529q55 0 55 -41t-55 -41h-521q18 -146 75 -254q68 -129 184 -199q116 -69 252 -69q224 0 338 191q36 60 58 164q10 52 41 52q50 0 50 -42q0 -63 -42 -169q-60 -148 -202 -221 q-111 -57 -251 -57q-184 0 -326 100q-177 125 -241 367q-14 56 -26 137h-132q-54 0 -54 41z" />
<glyph unicode="&#x25fc;" horiz-adv-x="995" vert-adv-y="1990" d="M0 0v995h995v-995h-995z" />
</font>
</defs>
</svg>
